<mxfile host="app.diagrams.net" modified="2021-01-21T10:25:12.598Z" agent="5.0 (Macintosh; Intel Mac OS X 11_1_0) AppleWebKit/537.36 (KHTML, like Gecko) Chrome/87.0.4280.141 Safari/537.36" etag="FU9kBl_sIMwXKdj-_SaS" version="14.2.6" type="github">
  <diagram id="JtLJROMqv9FEqNesyjSf" name="Page-1">
    <mxGraphModel dx="31960" dy="22120" grid="0" gridSize="10" guides="1" tooltips="1" connect="1" arrows="1" fold="1" page="0" pageScale="1" pageWidth="827" pageHeight="1169" background="#FFFFFF" math="0" shadow="0">
      <root>
        <mxCell id="0" />
        <mxCell id="1" parent="0" />
        <UserObject label="" lucidchartObjectId="bYk8c_LXlsSc" id="zB17QJ1JezGaDv5Xd8V1-17">
          <mxCell style="html=1;overflow=block;blockSpacing=1;whiteSpace=wrap;shape=image;whiteSpace=wrap;fontSize=11;spacing=0;strokeColor=none;strokeOpacity=100;strokeWidth=0;image=https://images.lucid.app/images/d88f8469-3bcd-4c98-b26e-608ebf6fbd34/content;imageAspect=0;" parent="1" vertex="1">
            <mxGeometry x="-1264" y="-2890" width="2002" height="2107" as="geometry" />
          </mxCell>
        </UserObject>
        <UserObject label="" lucidchartObjectId="18k8Mzf4Y3tT" id="zB17QJ1JezGaDv5Xd8V1-18">
          <mxCell style="html=1;overflow=block;blockSpacing=1;whiteSpace=wrap;shape=image;whiteSpace=wrap;fontSize=11;spacing=0;strokeColor=none;strokeOpacity=100;strokeWidth=0;image=https://images.lucid.app/images/3f3de95a-3482-4353-bea4-9d514dfb7d03/content;imageAspect=0;" parent="1" vertex="1">
            <mxGeometry x="-1121" y="-4748" width="1661" height="1649" as="geometry" />
          </mxCell>
        </UserObject>
        <UserObject label="NODE JS" lucidchartObjectId="xcl8sHX~lXwH" id="zB17QJ1JezGaDv5Xd8V1-19">
          <mxCell style="html=1;overflow=block;blockSpacing=1;whiteSpace=wrap;;whiteSpace=wrap;fontSize=23;fontColor=#333333;fontStyle=1;spacing=3;strokeOpacity=0;fillOpacity=100;rounded=1;absoluteArcSize=1;arcSize=7;fillColor=#a3d977;dashed=1;dashPattern=10 5 1 5 1 5;strokeWidth=2;" parent="1" vertex="1">
            <mxGeometry x="-474" y="1830" width="161" height="76" as="geometry" />
          </mxCell>
        </UserObject>
        <UserObject label="Back-End Development" lucidchartObjectId="xcl89NXcWQ2S" id="zB17QJ1JezGaDv5Xd8V1-20">
          <mxCell style="html=1;overflow=block;blockSpacing=1;whiteSpace=wrap;;whiteSpace=wrap;fontSize=26;fontColor=#333333;fontStyle=1;spacing=3;strokeOpacity=0;fillOpacity=100;rounded=1;absoluteArcSize=1;arcSize=7;fillColor=#a3d977;strokeWidth=2;" parent="1" vertex="1">
            <mxGeometry x="-588" y="2472" width="390" height="61" as="geometry" />
          </mxCell>
        </UserObject>
        <UserObject label="" lucidchartObjectId="xcl88U-8SVd3" id="zB17QJ1JezGaDv5Xd8V1-21">
          <mxCell style="html=1;jettySize=18;whiteSpace=wrap;fontSize=11;strokeColor=#5E5E5E;rounded=1;arcSize=12;edgeStyle=orthogonalEdgeStyle;startArrow=none;;endArrow=block;endFill=1;;exitX=0.5;exitY=1;exitPerimeter=0;entryX=0.5;entryY=0;entryPerimeter=0;" parent="1" source="zB17QJ1JezGaDv5Xd8V1-19" target="zB17QJ1JezGaDv5Xd8V1-20" edge="1">
            <mxGeometry width="100" height="100" relative="1" as="geometry">
              <Array as="points" />
            </mxGeometry>
          </mxCell>
        </UserObject>
        <UserObject label="" lucidchartObjectId="xcl8N~qdnHFd" id="zB17QJ1JezGaDv5Xd8V1-22">
          <mxCell style="html=1;overflow=block;blockSpacing=1;whiteSpace=wrap;shape=image;whiteSpace=wrap;fontSize=11;spacing=0;strokeColor=none;strokeOpacity=100;strokeWidth=0;image=https://images.lucid.app/images/a4f260b9-4fba-4e61-933c-40606351c454/content;imageAspect=0;" parent="1" vertex="1">
            <mxGeometry x="-909" y="1974" width="510" height="312" as="geometry" />
          </mxCell>
        </UserObject>
        <UserObject label="" lucidchartObjectId="xcl8RgR4jOFk" id="zB17QJ1JezGaDv5Xd8V1-23">
          <mxCell style="html=1;jettySize=18;whiteSpace=wrap;fontSize=11;strokeColor=#5E5E5E;rounded=1;arcSize=12;edgeStyle=orthogonalEdgeStyle;startArrow=none;;endArrow=block;endFill=1;;exitX=0.525;exitY=0.533;exitPerimeter=0;entryX=0.738;entryY=0.485;entryPerimeter=0;" parent="1" source="zB17QJ1JezGaDv5Xd8V1-22" target="zB17QJ1JezGaDv5Xd8V1-22" edge="1">
            <mxGeometry width="100" height="100" relative="1" as="geometry">
              <Array as="points">
                <mxPoint x="-644" y="2110" generated="1" />
                <mxPoint x="-535" y="2095" generated="1" />
              </Array>
            </mxGeometry>
          </mxCell>
        </UserObject>
        <UserObject label="Express / Koa / Adonis" lucidchartObjectId="xcl8sPYTE1OI" id="zB17QJ1JezGaDv5Xd8V1-24">
          <mxCell style="html=1;overflow=block;blockSpacing=1;whiteSpace=wrap;shape=display;whiteSpace=wrap;fontSize=19;fontColor=#333333;spacing=3;strokeColor=#a3d977;strokeOpacity=100;rounded=1;absoluteArcSize=1;arcSize=7;strokeWidth=2;" parent="1" vertex="1">
            <mxGeometry x="-393" y="1952" width="349" height="76" as="geometry" />
          </mxCell>
        </UserObject>
        <UserObject label="CORS" lucidchartObjectId="egl8p6xYd3r-" id="zB17QJ1JezGaDv5Xd8V1-25">
          <mxCell style="html=1;overflow=block;blockSpacing=1;whiteSpace=wrap;shape=display;whiteSpace=wrap;fontSize=19;fontColor=#333333;spacing=3;strokeColor=#a3d977;strokeOpacity=100;rounded=1;absoluteArcSize=1;arcSize=7;strokeWidth=2;" parent="1" vertex="1">
            <mxGeometry x="-396" y="2052" width="349" height="76" as="geometry" />
          </mxCell>
        </UserObject>
        <UserObject label="Mongoose" lucidchartObjectId="kgl8u~QaIL7N" id="zB17QJ1JezGaDv5Xd8V1-26">
          <mxCell style="html=1;overflow=block;blockSpacing=1;whiteSpace=wrap;shape=display;whiteSpace=wrap;fontSize=19;fontColor=#333333;spacing=3;strokeColor=#a3d977;strokeOpacity=100;rounded=1;absoluteArcSize=1;arcSize=7;strokeWidth=2;" parent="1" vertex="1">
            <mxGeometry x="-396" y="2160" width="349" height="76" as="geometry" />
          </mxCell>
        </UserObject>
        <UserObject label="Body Parser" lucidchartObjectId="Fgl8-7qhOdDJ" id="zB17QJ1JezGaDv5Xd8V1-27">
          <mxCell style="html=1;overflow=block;blockSpacing=1;whiteSpace=wrap;shape=display;whiteSpace=wrap;fontSize=19;fontColor=#333333;spacing=3;strokeColor=#a3d977;strokeOpacity=100;rounded=1;absoluteArcSize=1;arcSize=7;strokeWidth=2;" parent="1" vertex="1">
            <mxGeometry x="-396" y="2268" width="349" height="76" as="geometry" />
          </mxCell>
        </UserObject>
        <UserObject label="" lucidchartObjectId="O2t8.CScSU7e" id="zB17QJ1JezGaDv5Xd8V1-28">
          <mxCell style="html=1;overflow=block;blockSpacing=1;whiteSpace=wrap;shape=image;whiteSpace=wrap;fontSize=11;spacing=0;strokeColor=none;strokeOpacity=100;strokeWidth=0;image=https://images.lucid.app/images/4939071c-ffa0-45d0-b483-7f465164c7b0/content;imageAspect=0;" parent="1" vertex="1">
            <mxGeometry x="-1706" y="-1942" width="358" height="201" as="geometry" />
          </mxCell>
        </UserObject>
        <UserObject label="" lucidchartObjectId="T2t8TtcA~yWX" id="zB17QJ1JezGaDv5Xd8V1-29">
          <mxCell style="html=1;jettySize=18;whiteSpace=wrap;fontSize=11;strokeColor=#5E5E5E;rounded=1;arcSize=12;edgeStyle=orthogonalEdgeStyle;startArrow=none;;endArrow=block;endFill=1;;exitX=1;exitY=0.5;exitPerimeter=0;entryX=0;entryY=0.5;entryPerimeter=0;" parent="1" source="zB17QJ1JezGaDv5Xd8V1-28" target="zB17QJ1JezGaDv5Xd8V1-17" edge="1">
            <mxGeometry width="100" height="100" relative="1" as="geometry">
              <Array as="points" />
            </mxGeometry>
          </mxCell>
        </UserObject>
        <UserObject label="" lucidchartObjectId="99u8jVM_uDNc" id="zB17QJ1JezGaDv5Xd8V1-37">
          <mxCell style="html=1;jettySize=18;whiteSpace=wrap;fontSize=11;strokeColor=#5E5E5E;rounded=1;arcSize=12;edgeStyle=orthogonalEdgeStyle;startArrow=none;;endArrow=block;endFill=1;;exitX=1.003;exitY=0.5;exitPerimeter=0;entryX=-0.003;entryY=0.5;entryPerimeter=0;" parent="1" source="zB17QJ1JezGaDv5Xd8V1-26" target="zB17QJ1JezGaDv5Xd8V1-38" edge="1">
            <mxGeometry width="100" height="100" relative="1" as="geometry">
              <Array as="points" />
            </mxGeometry>
          </mxCell>
        </UserObject>
        <UserObject label="MongoDB" lucidchartObjectId="_9u8~4K.qMCd" id="zB17QJ1JezGaDv5Xd8V1-38">
          <mxCell style="html=1;overflow=block;blockSpacing=1;whiteSpace=wrap;;whiteSpace=wrap;fontSize=39;fontColor=#333333;spacing=7;strokeColor=#5E5E5E;rounded=1;absoluteArcSize=1;arcSize=7;strokeWidth=2;" parent="1" vertex="1">
            <mxGeometry x="240" y="2136" width="336" height="201" as="geometry" />
          </mxCell>
        </UserObject>
        <UserObject label="Project Manager" lucidchartObjectId="Kvv894SscN_q" id="zB17QJ1JezGaDv5Xd8V1-39">
          <mxCell style="html=1;overflow=block;blockSpacing=1;whiteSpace=wrap;;whiteSpace=wrap;fontSize=23;fontColor=#333333;fontStyle=1;spacing=3;strokeOpacity=0;fillOpacity=100;rounded=1;absoluteArcSize=1;arcSize=7;fillColor=#a3d977;dashed=1;dashPattern=10 5 1 5 1 5;strokeWidth=2;" parent="1" vertex="1">
            <mxGeometry x="-584" y="4482" width="264" height="64" as="geometry" />
          </mxCell>
        </UserObject>
        <UserObject label="" lucidchartObjectId="9vv8YtDjY1u5" id="zB17QJ1JezGaDv5Xd8V1-40">
          <mxCell style="html=1;jettySize=18;whiteSpace=wrap;fontSize=11;strokeColor=#5E5E5E;rounded=1;arcSize=12;edgeStyle=orthogonalEdgeStyle;startArrow=none;;endArrow=block;endFill=1;;exitX=0.5;exitY=1;exitPerimeter=0;entryX=1.009;entryY=0.5;entryPerimeter=0;" parent="1" source="zB17QJ1JezGaDv5Xd8V1-39" target="zB17QJ1JezGaDv5Xd8V1-41" edge="1">
            <mxGeometry width="100" height="100" relative="1" as="geometry">
              <Array as="points" />
            </mxGeometry>
          </mxCell>
        </UserObject>
        <UserObject label="NPM" lucidchartObjectId="_vv8IjqPZjYp" id="zB17QJ1JezGaDv5Xd8V1-41">
          <mxCell style="html=1;overflow=block;blockSpacing=1;whiteSpace=wrap;;whiteSpace=wrap;fontSize=15;fontColor=#333333;spacing=3;strokeColor=#5E5E5E;fillOpacity=100;rounded=1;absoluteArcSize=1;arcSize=7;fillColor=#fcc438;strokeWidth=2;" parent="1" vertex="1">
            <mxGeometry x="-578" y="4612" width="96" height="96" as="geometry" />
          </mxCell>
        </UserObject>
        <UserObject label="" lucidchartObjectId="iwv8BzeyNbB_" id="zB17QJ1JezGaDv5Xd8V1-42">
          <mxCell style="html=1;jettySize=18;whiteSpace=wrap;fontSize=11;strokeColor=#5E5E5E;rounded=1;arcSize=12;edgeStyle=orthogonalEdgeStyle;startArrow=none;;endArrow=block;endFill=1;;exitX=0.5;exitY=1;exitPerimeter=0;entryX=-0.009;entryY=0.5;entryPerimeter=0;" parent="1" source="zB17QJ1JezGaDv5Xd8V1-39" target="zB17QJ1JezGaDv5Xd8V1-43" edge="1">
            <mxGeometry width="100" height="100" relative="1" as="geometry">
              <Array as="points" />
            </mxGeometry>
          </mxCell>
        </UserObject>
        <UserObject label="YARN" lucidchartObjectId="jwv8Bz_x.H0o" id="zB17QJ1JezGaDv5Xd8V1-43">
          <mxCell style="html=1;overflow=block;blockSpacing=1;whiteSpace=wrap;;whiteSpace=wrap;fontSize=15;fontColor=#333333;spacing=3;strokeColor=#5E5E5E;fillOpacity=100;rounded=1;absoluteArcSize=1;arcSize=7;fillColor=#fcc438;strokeWidth=2;" parent="1" vertex="1">
            <mxGeometry x="-420" y="4614" width="96" height="96" as="geometry" />
          </mxCell>
        </UserObject>
        <mxCell id="Wss5hNtUMIo5RKEupLla-31" style="edgeStyle=orthogonalEdgeStyle;rounded=0;orthogonalLoop=1;jettySize=auto;html=1;" edge="1" parent="1" source="zB17QJ1JezGaDv5Xd8V1-44" target="Wss5hNtUMIo5RKEupLla-2">
          <mxGeometry relative="1" as="geometry" />
        </mxCell>
        <mxCell id="Wss5hNtUMIo5RKEupLla-42" style="edgeStyle=orthogonalEdgeStyle;rounded=0;orthogonalLoop=1;jettySize=auto;html=1;entryX=0.5;entryY=0;entryDx=0;entryDy=0;" edge="1" parent="1" source="zB17QJ1JezGaDv5Xd8V1-44" target="Wss5hNtUMIo5RKEupLla-3">
          <mxGeometry relative="1" as="geometry" />
        </mxCell>
        <UserObject label="Version Control" lucidchartObjectId="Xwv8mhawineN" id="zB17QJ1JezGaDv5Xd8V1-44">
          <mxCell style="html=1;overflow=block;blockSpacing=1;whiteSpace=wrap;;whiteSpace=wrap;fontSize=23;fontColor=#333333;fontStyle=1;spacing=3;strokeOpacity=0;fillOpacity=100;rounded=1;absoluteArcSize=1;arcSize=7;fillColor=#a3d977;dashed=1;dashPattern=10 5 1 5 1 5;strokeWidth=2;" parent="1" vertex="1">
            <mxGeometry x="175" y="4446" width="216" height="70" as="geometry" />
          </mxCell>
        </UserObject>
        <mxCell id="Wss5hNtUMIo5RKEupLla-2" value="&lt;font style=&quot;font-size: 18px&quot;&gt;GIT&lt;/font&gt;" style="rounded=0;whiteSpace=wrap;html=1;strokeWidth=2;fillColor=#FFFF66;" vertex="1" parent="1">
          <mxGeometry x="115" y="4580" width="120" height="96" as="geometry" />
        </mxCell>
        <mxCell id="Wss5hNtUMIo5RKEupLla-3" value="&lt;span style=&quot;font-size: 18px&quot;&gt;Git Hub&lt;/span&gt;" style="rounded=0;whiteSpace=wrap;html=1;strokeWidth=2;fillColor=#FFFF66;" vertex="1" parent="1">
          <mxGeometry x="313" y="4580" width="120" height="91" as="geometry" />
        </mxCell>
        <mxCell id="Wss5hNtUMIo5RKEupLla-37" value="" style="group" vertex="1" connectable="0" parent="1">
          <mxGeometry x="-977" y="-467" width="1517" height="660" as="geometry" />
        </mxCell>
        <UserObject label="" lucidchartObjectId="I9t8R9OY_2Jb" id="zB17QJ1JezGaDv5Xd8V1-31">
          <mxCell style="html=1;overflow=block;blockSpacing=1;whiteSpace=wrap;shape=image;whiteSpace=wrap;fontSize=11;spacing=0;strokeColor=none;strokeOpacity=100;strokeWidth=0;image=https://images.lucid.app/images/786b6b7b-f0a2-482d-b192-50fa40de2247/content;imageAspect=0;" parent="Wss5hNtUMIo5RKEupLla-37" vertex="1">
            <mxGeometry y="324" width="240" height="336" as="geometry" />
          </mxCell>
        </UserObject>
        <mxCell id="Wss5hNtUMIo5RKEupLla-39" value="" style="group" vertex="1" connectable="0" parent="Wss5hNtUMIo5RKEupLla-37">
          <mxGeometry x="402" width="1115" height="660" as="geometry" />
        </mxCell>
        <UserObject label="Code Editor" lucidchartObjectId="x6t8JbyWwxDy" id="zB17QJ1JezGaDv5Xd8V1-30">
          <mxCell style="html=1;overflow=block;blockSpacing=1;whiteSpace=wrap;;whiteSpace=wrap;fontSize=23;fontColor=#333333;fontStyle=1;spacing=3;strokeOpacity=0;fillOpacity=100;rounded=1;absoluteArcSize=1;arcSize=7;fillColor=#a3d977;dashed=1;dashPattern=10 5 1 5 1 5;strokeWidth=2;" parent="Wss5hNtUMIo5RKEupLla-39" vertex="1">
            <mxGeometry x="258" width="252" height="72" as="geometry" />
          </mxCell>
        </UserObject>
        <UserObject label="" lucidchartObjectId="T9t8s7J6l8cb" id="zB17QJ1JezGaDv5Xd8V1-32">
          <mxCell style="html=1;jettySize=18;whiteSpace=wrap;fontSize=11;strokeColor=#5E5E5E;rounded=1;arcSize=12;edgeStyle=orthogonalEdgeStyle;startArrow=none;;endArrow=block;endFill=1;;exitX=0.5;exitY=1;exitPerimeter=0;entryX=0.5;entryY=0;entryPerimeter=0;" parent="Wss5hNtUMIo5RKEupLla-39" source="zB17QJ1JezGaDv5Xd8V1-30" target="zB17QJ1JezGaDv5Xd8V1-31" edge="1">
            <mxGeometry width="100" height="100" relative="1" as="geometry">
              <Array as="points" />
            </mxGeometry>
          </mxCell>
        </UserObject>
        <UserObject label="" lucidchartObjectId=".9t8Wo-dij_b" id="zB17QJ1JezGaDv5Xd8V1-33">
          <mxCell style="html=1;overflow=block;blockSpacing=1;whiteSpace=wrap;shape=image;whiteSpace=wrap;fontSize=11;spacing=0;strokeColor=none;strokeOpacity=100;strokeWidth=0;image=https://images.lucid.app/images/738f2dd0-c283-4c4f-bc53-29f19d0f0db6/content;imageAspect=0;" parent="Wss5hNtUMIo5RKEupLla-39" vertex="1">
            <mxGeometry x="846" y="324" width="269" height="336" as="geometry" />
          </mxCell>
        </UserObject>
        <UserObject label="" lucidchartObjectId="p-t8.RNpa6YI" id="zB17QJ1JezGaDv5Xd8V1-34">
          <mxCell style="html=1;jettySize=18;whiteSpace=wrap;fontSize=11;strokeColor=#5E5E5E;rounded=1;arcSize=12;edgeStyle=orthogonalEdgeStyle;startArrow=none;;endArrow=block;endFill=1;;exitX=0.5;exitY=1;exitPerimeter=0;entryX=0.5;entryY=0;entryPerimeter=0;" parent="Wss5hNtUMIo5RKEupLla-39" source="zB17QJ1JezGaDv5Xd8V1-30" target="zB17QJ1JezGaDv5Xd8V1-33" edge="1">
            <mxGeometry width="100" height="100" relative="1" as="geometry">
              <Array as="points" />
            </mxGeometry>
          </mxCell>
        </UserObject>
        <UserObject label="" lucidchartObjectId="p_t8ikNYL4_m" id="zB17QJ1JezGaDv5Xd8V1-35">
          <mxCell style="html=1;overflow=block;blockSpacing=1;whiteSpace=wrap;shape=image;whiteSpace=wrap;fontSize=11;spacing=0;strokeColor=none;strokeOpacity=100;strokeWidth=0;image=https://images.lucid.app/images/cbc9f57f-f6c6-4fba-b83d-11d0e549d71b/content;imageAspect=0;" parent="Wss5hNtUMIo5RKEupLla-39" vertex="1">
            <mxGeometry y="279" width="768" height="373" as="geometry" />
          </mxCell>
        </UserObject>
        <UserObject label="" lucidchartObjectId="V_t8JZ4WC8S_" id="zB17QJ1JezGaDv5Xd8V1-36">
          <mxCell style="html=1;jettySize=18;whiteSpace=wrap;fontSize=11;strokeColor=#5E5E5E;rounded=1;arcSize=12;edgeStyle=orthogonalEdgeStyle;startArrow=none;;endArrow=block;endFill=1;;exitX=0.5;exitY=1;exitPerimeter=0;entryX=0.5;entryY=0;entryPerimeter=0;" parent="Wss5hNtUMIo5RKEupLla-39" source="zB17QJ1JezGaDv5Xd8V1-30" target="zB17QJ1JezGaDv5Xd8V1-35" edge="1">
            <mxGeometry width="100" height="100" relative="1" as="geometry">
              <Array as="points" />
            </mxGeometry>
          </mxCell>
        </UserObject>
        <mxCell id="Wss5hNtUMIo5RKEupLla-40" value="" style="group" vertex="1" connectable="0" parent="1">
          <mxGeometry x="-997" y="673" width="1412" height="748.5" as="geometry" />
        </mxCell>
        <UserObject label="REACT JS" lucidchartObjectId="6Ck86R4uPVeU" id="zB17QJ1JezGaDv5Xd8V1-1">
          <mxCell style="html=1;overflow=block;blockSpacing=1;whiteSpace=wrap;;whiteSpace=wrap;fontSize=23;fontColor=#333333;fontStyle=1;spacing=3;strokeOpacity=0;fillOpacity=100;rounded=1;absoluteArcSize=1;arcSize=7;fillColor=#a3d977;dashed=1;dashPattern=10 5 1 5 1 5;strokeWidth=2;" parent="Wss5hNtUMIo5RKEupLla-40" vertex="1">
            <mxGeometry x="572" y="40.5" width="144" height="60" as="geometry" />
          </mxCell>
        </UserObject>
        <UserObject label="HTML" lucidchartObjectId="6Ck8ahEIV9MO" id="zB17QJ1JezGaDv5Xd8V1-2">
          <mxCell style="html=1;overflow=block;blockSpacing=1;whiteSpace=wrap;shape=display;whiteSpace=wrap;fontSize=17;fontColor=#333333;spacing=3;strokeColor=#a3d977;strokeOpacity=100;rounded=1;absoluteArcSize=1;arcSize=7;strokeWidth=2;" parent="Wss5hNtUMIo5RKEupLla-40" vertex="1">
            <mxGeometry x="644" y="148.5" width="192" height="60" as="geometry" />
          </mxCell>
        </UserObject>
        <UserObject label="CSS" lucidchartObjectId="6Ck8O2yo67xJ" id="zB17QJ1JezGaDv5Xd8V1-3">
          <mxCell style="html=1;overflow=block;blockSpacing=1;whiteSpace=wrap;shape=display;whiteSpace=wrap;fontSize=17;fontColor=#333333;spacing=3;strokeColor=#a3d977;strokeOpacity=100;rounded=1;absoluteArcSize=1;arcSize=7;strokeWidth=2;" parent="Wss5hNtUMIo5RKEupLla-40" vertex="1">
            <mxGeometry x="644" y="232.5" width="192" height="60" as="geometry" />
          </mxCell>
        </UserObject>
        <UserObject label="BEM CONVENTION" lucidchartObjectId="6Ck8ceWDPkGe" id="zB17QJ1JezGaDv5Xd8V1-4">
          <mxCell style="html=1;overflow=block;blockSpacing=1;whiteSpace=wrap;shape=display;whiteSpace=wrap;fontSize=17;fontColor=#333333;spacing=3;strokeColor=#a3d977;strokeOpacity=100;rounded=1;absoluteArcSize=1;arcSize=7;strokeWidth=2;" parent="Wss5hNtUMIo5RKEupLla-40" vertex="1">
            <mxGeometry x="644" y="352.5" width="192" height="60" as="geometry" />
          </mxCell>
        </UserObject>
        <UserObject label="" lucidchartObjectId="6Ck8ZlIfZ0-I" id="zB17QJ1JezGaDv5Xd8V1-5">
          <mxCell style="html=1;jettySize=18;whiteSpace=wrap;fontSize=11;strokeColor=#5E5E5E;rounded=1;arcSize=12;edgeStyle=orthogonalEdgeStyle;startArrow=none;;endArrow=block;endFill=1;;exitX=0.5;exitY=1;exitPerimeter=0;entryX=0.483;entryY=0;entryPerimeter=0;" parent="Wss5hNtUMIo5RKEupLla-40" source="zB17QJ1JezGaDv5Xd8V1-1" target="zB17QJ1JezGaDv5Xd8V1-6" edge="1">
            <mxGeometry width="100" height="100" relative="1" as="geometry">
              <Array as="points" />
            </mxGeometry>
          </mxCell>
        </UserObject>
        <UserObject label="Front-End Development" lucidchartObjectId="6Ck8IbPXfzBZ" id="zB17QJ1JezGaDv5Xd8V1-6">
          <mxCell style="html=1;overflow=block;blockSpacing=1;whiteSpace=wrap;;whiteSpace=wrap;fontSize=26;fontColor=#333333;fontStyle=1;spacing=3;strokeOpacity=0;fillOpacity=100;rounded=1;absoluteArcSize=1;arcSize=7;fillColor=#a3d977;strokeWidth=2;" parent="Wss5hNtUMIo5RKEupLla-40" vertex="1">
            <mxGeometry x="476" y="700.5" width="348" height="48" as="geometry" />
          </mxCell>
        </UserObject>
        <UserObject label="" lucidchartObjectId="6Ck85ah0QILY" id="zB17QJ1JezGaDv5Xd8V1-7">
          <mxCell style="html=1;overflow=block;blockSpacing=1;whiteSpace=wrap;shape=image;whiteSpace=wrap;fontSize=11;spacing=0;strokeColor=none;strokeOpacity=100;strokeWidth=0;image=https://images.lucid.app/images/3d94fecb-461e-433b-916a-706db6c688e6/content;imageAspect=0;" parent="Wss5hNtUMIo5RKEupLla-40" vertex="1">
            <mxGeometry width="786" height="556" as="geometry" />
          </mxCell>
        </UserObject>
        <UserObject label="State Management" lucidchartObjectId="6Ck8tQNbvZ0y" id="zB17QJ1JezGaDv5Xd8V1-8">
          <mxCell style="html=1;overflow=block;blockSpacing=1;whiteSpace=wrap;shape=display;whiteSpace=wrap;fontSize=18;fontColor=#333333;spacing=3;strokeColor=#a3d977;strokeOpacity=100;rounded=1;absoluteArcSize=1;arcSize=7;strokeWidth=2;" parent="Wss5hNtUMIo5RKEupLla-40" vertex="1">
            <mxGeometry x="644" y="460.5" width="192" height="60" as="geometry" />
          </mxCell>
        </UserObject>
        <UserObject label="" lucidchartObjectId="6Ck8aPyTkuxm" id="zB17QJ1JezGaDv5Xd8V1-9">
          <mxCell style="html=1;jettySize=18;whiteSpace=wrap;fontSize=11;strokeColor=#5E5E5E;rounded=1;arcSize=12;edgeStyle=orthogonalEdgeStyle;startArrow=none;;endArrow=block;endFill=1;;exitX=1.005;exitY=0.5;exitPerimeter=0;entryX=0.003;entryY=0.5;entryPerimeter=0;" parent="Wss5hNtUMIo5RKEupLla-40" source="zB17QJ1JezGaDv5Xd8V1-8" target="zB17QJ1JezGaDv5Xd8V1-10" edge="1">
            <mxGeometry width="100" height="100" relative="1" as="geometry">
              <Array as="points" />
            </mxGeometry>
          </mxCell>
        </UserObject>
        <UserObject label="REDUX / Context API" lucidchartObjectId="6Ck8MA-Yda34" id="zB17QJ1JezGaDv5Xd8V1-10">
          <mxCell style="html=1;overflow=block;blockSpacing=1;whiteSpace=wrap;shape=display;whiteSpace=wrap;fontSize=19;fontColor=#333333;spacing=3;strokeColor=#ffdf71;strokeOpacity=100;rounded=1;absoluteArcSize=1;arcSize=7;strokeWidth=2;" parent="Wss5hNtUMIo5RKEupLla-40" vertex="1">
            <mxGeometry x="1028" y="370.5" width="384" height="90" as="geometry" />
          </mxCell>
        </UserObject>
        <UserObject label="Linters and Formatters" lucidchartObjectId="NEk8rkdBh5NM" id="zB17QJ1JezGaDv5Xd8V1-11">
          <mxCell style="html=1;overflow=block;blockSpacing=1;whiteSpace=wrap;shape=display;whiteSpace=wrap;fontSize=18;fontColor=#333333;spacing=3;strokeColor=#a3d977;strokeOpacity=100;rounded=1;absoluteArcSize=1;arcSize=7;strokeWidth=2;" parent="Wss5hNtUMIo5RKEupLla-40" vertex="1">
            <mxGeometry x="644" y="580.5" width="216" height="60" as="geometry" />
          </mxCell>
        </UserObject>
        <UserObject label="PRETTIER / ESLINT" lucidchartObjectId="4Ek8ULH88jD~" id="zB17QJ1JezGaDv5Xd8V1-12">
          <mxCell style="html=1;overflow=block;blockSpacing=1;whiteSpace=wrap;shape=display;whiteSpace=wrap;fontSize=19;fontColor=#333333;spacing=3;strokeColor=#ffdf71;strokeOpacity=100;rounded=1;absoluteArcSize=1;arcSize=7;strokeWidth=2;" parent="Wss5hNtUMIo5RKEupLla-40" vertex="1">
            <mxGeometry x="1040" y="565.5" width="372" height="90" as="geometry" />
          </mxCell>
        </UserObject>
        <UserObject label="" lucidchartObjectId="_Ek87jOUP-1O" id="zB17QJ1JezGaDv5Xd8V1-13">
          <mxCell style="html=1;jettySize=18;whiteSpace=wrap;fontSize=11;strokeColor=#5E5E5E;rounded=1;arcSize=12;edgeStyle=orthogonalEdgeStyle;startArrow=none;;endArrow=block;endFill=1;;exitX=1.004;exitY=0.5;exitPerimeter=0;entryX=0.003;entryY=0.5;entryPerimeter=0;" parent="Wss5hNtUMIo5RKEupLla-40" source="zB17QJ1JezGaDv5Xd8V1-11" target="zB17QJ1JezGaDv5Xd8V1-12" edge="1">
            <mxGeometry width="100" height="100" relative="1" as="geometry">
              <Array as="points" />
            </mxGeometry>
          </mxCell>
        </UserObject>
        <UserObject label="BOOTSTRAP / MATERIAL UI" lucidchartObjectId="rGk8LPxszYs5" id="zB17QJ1JezGaDv5Xd8V1-14">
          <mxCell style="html=1;overflow=block;blockSpacing=1;whiteSpace=wrap;shape=display;whiteSpace=wrap;fontSize=19;fontColor=#333333;spacing=3;strokeColor=#ffdf71;strokeOpacity=100;rounded=1;absoluteArcSize=1;arcSize=7;strokeWidth=2;" parent="Wss5hNtUMIo5RKEupLla-40" vertex="1">
            <mxGeometry x="1028" y="217.5" width="384" height="90" as="geometry" />
          </mxCell>
        </UserObject>
        <UserObject label="" lucidchartObjectId="wGk8XPY8SZma" id="zB17QJ1JezGaDv5Xd8V1-15">
          <mxCell style="html=1;jettySize=18;whiteSpace=wrap;fontSize=11;strokeColor=#5E5E5E;rounded=1;arcSize=12;edgeStyle=orthogonalEdgeStyle;startArrow=none;;endArrow=block;endFill=1;;exitX=1.005;exitY=0.5;exitPerimeter=0;entryX=0.003;entryY=0.5;entryPerimeter=0;" parent="Wss5hNtUMIo5RKEupLla-40" source="zB17QJ1JezGaDv5Xd8V1-3" target="zB17QJ1JezGaDv5Xd8V1-14" edge="1">
            <mxGeometry width="100" height="100" relative="1" as="geometry">
              <Array as="points" />
            </mxGeometry>
          </mxCell>
        </UserObject>
        <UserObject label="" lucidchartObjectId="-Hk8HLSPyO.P" id="zB17QJ1JezGaDv5Xd8V1-16">
          <mxCell style="html=1;jettySize=18;whiteSpace=wrap;fontSize=11;strokeColor=#5E5E5E;rounded=1;arcSize=12;edgeStyle=orthogonalEdgeStyle;startArrow=none;;endArrow=block;endFill=1;;exitX=0.003;exitY=0.5;exitPerimeter=0;" parent="Wss5hNtUMIo5RKEupLla-40" source="zB17QJ1JezGaDv5Xd8V1-10" edge="1">
            <mxGeometry width="100" height="100" relative="1" as="geometry">
              <Array as="points" />
              <mxPoint x="1007" y="415.5" as="targetPoint" />
            </mxGeometry>
          </mxCell>
        </UserObject>
        <mxCell id="Wss5hNtUMIo5RKEupLla-41" value="" style="group" vertex="1" connectable="0" parent="1">
          <mxGeometry x="-922" y="2989" width="1430" height="792" as="geometry" />
        </mxCell>
        <UserObject label="Databases" lucidchartObjectId="xcl89NXcWQ2S" id="Wss5hNtUMIo5RKEupLla-7">
          <mxCell style="html=1;overflow=block;blockSpacing=1;whiteSpace=wrap;;whiteSpace=wrap;fontSize=26;fontColor=#333333;fontStyle=1;spacing=3;strokeOpacity=0;fillOpacity=100;rounded=1;absoluteArcSize=1;arcSize=7;fillColor=#a3d977;strokeWidth=2;" vertex="1" parent="Wss5hNtUMIo5RKEupLla-41">
            <mxGeometry x="477.5" width="390" height="61" as="geometry" />
          </mxCell>
        </UserObject>
        <mxCell id="Wss5hNtUMIo5RKEupLla-9" value="&lt;font style=&quot;font-size: 28px&quot;&gt;MY SQL&lt;/font&gt;" style="rounded=0;whiteSpace=wrap;html=1;strokeWidth=2;fillColor=#FFFF66;" vertex="1" parent="Wss5hNtUMIo5RKEupLla-41">
          <mxGeometry x="13.75" y="282" width="280" height="120" as="geometry" />
        </mxCell>
        <mxCell id="Wss5hNtUMIo5RKEupLla-10" value="&lt;font style=&quot;font-size: 28px&quot;&gt;POSTGRASE&lt;/font&gt;" style="rounded=0;whiteSpace=wrap;html=1;strokeWidth=2;fillColor=#FFFF66;" vertex="1" parent="Wss5hNtUMIo5RKEupLla-41">
          <mxGeometry x="13.75" y="482" width="280" height="120" as="geometry" />
        </mxCell>
        <mxCell id="Wss5hNtUMIo5RKEupLla-28" style="edgeStyle=orthogonalEdgeStyle;rounded=0;orthogonalLoop=1;jettySize=auto;html=1;" edge="1" parent="Wss5hNtUMIo5RKEupLla-41" source="Wss5hNtUMIo5RKEupLla-9" target="Wss5hNtUMIo5RKEupLla-10">
          <mxGeometry relative="1" as="geometry" />
        </mxCell>
        <mxCell id="Wss5hNtUMIo5RKEupLla-12" value="&lt;font style=&quot;font-size: 28px&quot;&gt;MS SQL&lt;/font&gt;" style="rounded=0;whiteSpace=wrap;html=1;strokeWidth=2;fillColor=#FFFF66;" vertex="1" parent="Wss5hNtUMIo5RKEupLla-41">
          <mxGeometry x="13.75" y="672" width="280" height="120" as="geometry" />
        </mxCell>
        <mxCell id="Wss5hNtUMIo5RKEupLla-29" style="edgeStyle=orthogonalEdgeStyle;rounded=0;orthogonalLoop=1;jettySize=auto;html=1;" edge="1" parent="Wss5hNtUMIo5RKEupLla-41" source="Wss5hNtUMIo5RKEupLla-10" target="Wss5hNtUMIo5RKEupLla-12">
          <mxGeometry relative="1" as="geometry" />
        </mxCell>
        <mxCell id="Wss5hNtUMIo5RKEupLla-27" style="edgeStyle=orthogonalEdgeStyle;rounded=0;orthogonalLoop=1;jettySize=auto;html=1;" edge="1" parent="Wss5hNtUMIo5RKEupLla-41" source="Wss5hNtUMIo5RKEupLla-14" target="Wss5hNtUMIo5RKEupLla-9">
          <mxGeometry relative="1" as="geometry" />
        </mxCell>
        <mxCell id="Wss5hNtUMIo5RKEupLla-14" value="&lt;font style=&quot;font-size: 21px&quot;&gt;RELATIONAL DATABASE&lt;/font&gt;" style="rounded=1;whiteSpace=wrap;html=1;strokeWidth=2;fillColor=#FFFF66;" vertex="1" parent="Wss5hNtUMIo5RKEupLla-41">
          <mxGeometry y="162" width="307.5" height="60" as="geometry" />
        </mxCell>
        <mxCell id="Wss5hNtUMIo5RKEupLla-30" style="edgeStyle=orthogonalEdgeStyle;rounded=0;orthogonalLoop=1;jettySize=auto;html=1;" edge="1" parent="Wss5hNtUMIo5RKEupLla-41" source="Wss5hNtUMIo5RKEupLla-15" target="Wss5hNtUMIo5RKEupLla-14">
          <mxGeometry relative="1" as="geometry" />
        </mxCell>
        <mxCell id="Wss5hNtUMIo5RKEupLla-15" value="&lt;font style=&quot;font-size: 21px&quot;&gt;NORELATIONAL DATABASE&lt;/font&gt;" style="rounded=1;whiteSpace=wrap;html=1;strokeWidth=2;fillColor=#FFFF66;" vertex="1" parent="Wss5hNtUMIo5RKEupLla-41">
          <mxGeometry x="467.5" y="162" width="412.5" height="60" as="geometry" />
        </mxCell>
        <mxCell id="Wss5hNtUMIo5RKEupLla-16" value="&lt;font style=&quot;font-size: 28px&quot;&gt;MONGODB&lt;/font&gt;" style="rounded=0;whiteSpace=wrap;html=1;strokeWidth=2;fillColor=#FFFF66;" vertex="1" parent="Wss5hNtUMIo5RKEupLla-41">
          <mxGeometry x="532.5" y="282" width="280" height="120" as="geometry" />
        </mxCell>
        <mxCell id="Wss5hNtUMIo5RKEupLla-18" style="edgeStyle=orthogonalEdgeStyle;rounded=0;orthogonalLoop=1;jettySize=auto;html=1;" edge="1" parent="Wss5hNtUMIo5RKEupLla-41" source="Wss5hNtUMIo5RKEupLla-15" target="Wss5hNtUMIo5RKEupLla-16">
          <mxGeometry relative="1" as="geometry" />
        </mxCell>
        <mxCell id="Wss5hNtUMIo5RKEupLla-17" value="&lt;font style=&quot;font-size: 28px&quot;&gt;Couchbase&lt;/font&gt;" style="rounded=0;whiteSpace=wrap;html=1;strokeWidth=2;fillColor=#FFFF66;" vertex="1" parent="Wss5hNtUMIo5RKEupLla-41">
          <mxGeometry x="532.5" y="492" width="280" height="120" as="geometry" />
        </mxCell>
        <mxCell id="Wss5hNtUMIo5RKEupLla-19" style="edgeStyle=orthogonalEdgeStyle;rounded=0;orthogonalLoop=1;jettySize=auto;html=1;" edge="1" parent="Wss5hNtUMIo5RKEupLla-41" source="Wss5hNtUMIo5RKEupLla-15" target="Wss5hNtUMIo5RKEupLla-17">
          <mxGeometry relative="1" as="geometry" />
        </mxCell>
        <mxCell id="Wss5hNtUMIo5RKEupLla-20" value="&lt;font style=&quot;font-size: 21px&quot;&gt;CLOUD DATABASE&lt;/font&gt;" style="rounded=1;whiteSpace=wrap;html=1;strokeWidth=2;fillColor=#FFFF66;" vertex="1" parent="Wss5hNtUMIo5RKEupLla-41">
          <mxGeometry x="1017.5" y="162" width="412.5" height="60" as="geometry" />
        </mxCell>
        <mxCell id="Wss5hNtUMIo5RKEupLla-21" style="edgeStyle=orthogonalEdgeStyle;rounded=0;orthogonalLoop=1;jettySize=auto;html=1;" edge="1" parent="Wss5hNtUMIo5RKEupLla-41" source="Wss5hNtUMIo5RKEupLla-7" target="Wss5hNtUMIo5RKEupLla-20">
          <mxGeometry relative="1" as="geometry">
            <Array as="points">
              <mxPoint x="672.5" y="192" />
            </Array>
          </mxGeometry>
        </mxCell>
        <mxCell id="Wss5hNtUMIo5RKEupLla-22" value="&lt;font style=&quot;font-size: 28px&quot;&gt;FIREBASE&lt;/font&gt;" style="rounded=0;whiteSpace=wrap;html=1;strokeWidth=2;fillColor=#FFFF66;" vertex="1" parent="Wss5hNtUMIo5RKEupLla-41">
          <mxGeometry x="1083.75" y="282" width="280" height="120" as="geometry" />
        </mxCell>
        <mxCell id="Wss5hNtUMIo5RKEupLla-24" style="edgeStyle=orthogonalEdgeStyle;rounded=0;orthogonalLoop=1;jettySize=auto;html=1;" edge="1" parent="Wss5hNtUMIo5RKEupLla-41" source="Wss5hNtUMIo5RKEupLla-20" target="Wss5hNtUMIo5RKEupLla-22">
          <mxGeometry relative="1" as="geometry" />
        </mxCell>
        <mxCell id="Wss5hNtUMIo5RKEupLla-23" value="&lt;font style=&quot;font-size: 28px&quot;&gt;AWS&lt;/font&gt;" style="rounded=0;whiteSpace=wrap;html=1;strokeWidth=2;fillColor=#FFFF66;" vertex="1" parent="Wss5hNtUMIo5RKEupLla-41">
          <mxGeometry x="1083.75" y="472" width="280" height="120" as="geometry" />
        </mxCell>
        <mxCell id="Wss5hNtUMIo5RKEupLla-25" style="edgeStyle=orthogonalEdgeStyle;rounded=0;orthogonalLoop=1;jettySize=auto;html=1;" edge="1" parent="Wss5hNtUMIo5RKEupLla-41" source="Wss5hNtUMIo5RKEupLla-22" target="Wss5hNtUMIo5RKEupLla-23">
          <mxGeometry relative="1" as="geometry" />
        </mxCell>
        <mxCell id="Wss5hNtUMIo5RKEupLla-26" value="&lt;font style=&quot;font-size: 28px&quot;&gt;AZURE DOCUMENT&lt;/font&gt;" style="rounded=0;whiteSpace=wrap;html=1;strokeWidth=2;fillColor=#FFFF66;" vertex="1" parent="Wss5hNtUMIo5RKEupLla-41">
          <mxGeometry x="1083.75" y="645" width="280" height="120" as="geometry" />
        </mxCell>
        <mxCell id="Wss5hNtUMIo5RKEupLla-44" value="" style="shape=image;verticalLabelPosition=bottom;labelBackgroundColor=#ffffff;verticalAlign=top;aspect=fixed;imageAspect=0;image=https://roadmap.sh/roadmaps/react.png;" vertex="1" parent="1">
          <mxGeometry x="11195" y="7910.000000000001" width="18102" height="22305.79" as="geometry" />
        </mxCell>
        <mxCell id="Wss5hNtUMIo5RKEupLla-53" value="" style="group" vertex="1" connectable="0" parent="1">
          <mxGeometry x="-5944" y="7733" width="13294" height="12722.330000000002" as="geometry" />
        </mxCell>
        <mxCell id="Wss5hNtUMIo5RKEupLla-36" value="" style="group;glass=0;shadow=1;sketch=0;" vertex="1" connectable="0" parent="Wss5hNtUMIo5RKEupLla-53">
          <mxGeometry width="13294" height="12722.33" as="geometry" />
        </mxCell>
        <mxCell id="Wss5hNtUMIo5RKEupLla-33" value="" style="shape=image;verticalLabelPosition=bottom;labelBackgroundColor=#ffffff;verticalAlign=top;aspect=fixed;imageAspect=0;image=https://miro.medium.com/max/2434/1*qan3U0peL-CSdtKaCwKohA.png;" vertex="1" parent="Wss5hNtUMIo5RKEupLla-36">
          <mxGeometry y="69" width="4453" height="12653.33" as="geometry" />
        </mxCell>
        <mxCell id="Wss5hNtUMIo5RKEupLla-34" value="" style="shape=image;verticalLabelPosition=bottom;labelBackgroundColor=#ffffff;verticalAlign=top;aspect=fixed;imageAspect=0;image=https://miro.medium.com/max/2568/1*LTkmgkc4TAsMHI-66G2bGg.png;" vertex="1" parent="Wss5hNtUMIo5RKEupLla-36">
          <mxGeometry x="4510" y="53" width="4259" height="12036.3" as="geometry" />
        </mxCell>
        <mxCell id="Wss5hNtUMIo5RKEupLla-35" value="" style="shape=image;verticalLabelPosition=bottom;labelBackgroundColor=#ffffff;verticalAlign=top;aspect=fixed;imageAspect=0;image=https://miro.medium.com/max/2470/1*gCx3bvMCSiIYMb1DgcS9zA.png;" vertex="1" parent="Wss5hNtUMIo5RKEupLla-36">
          <mxGeometry x="8800" width="4494" height="8086.08" as="geometry" />
        </mxCell>
        <mxCell id="Wss5hNtUMIo5RKEupLla-45" value="" style="rounded=0;whiteSpace=wrap;html=1;shadow=1;glass=0;sketch=0;strokeWidth=2;fillColor=#FFFF66;" vertex="1" parent="Wss5hNtUMIo5RKEupLla-53">
          <mxGeometry x="3318" y="1164" width="120" height="60" as="geometry" />
        </mxCell>
        <mxCell id="Wss5hNtUMIo5RKEupLla-49" value="" style="rounded=0;whiteSpace=wrap;html=1;shadow=1;glass=0;sketch=0;strokeWidth=2;fillColor=#FFFF66;" vertex="1" parent="Wss5hNtUMIo5RKEupLla-53">
          <mxGeometry x="3318" y="1164" width="120" height="60" as="geometry" />
        </mxCell>
        <mxCell id="Wss5hNtUMIo5RKEupLla-50" value="&lt;font style=&quot;font-size: 200px&quot;&gt;Front&lt;/font&gt;" style="rounded=0;whiteSpace=wrap;html=1;shadow=1;glass=0;sketch=0;strokeWidth=2;fillColor=#FFFF66;" vertex="1" parent="Wss5hNtUMIo5RKEupLla-53">
          <mxGeometry x="2951" y="74" width="1280" height="506" as="geometry" />
        </mxCell>
        <mxCell id="Wss5hNtUMIo5RKEupLla-51" value="&lt;font style=&quot;font-size: 200px&quot;&gt;BACK&lt;/font&gt;" style="rounded=0;whiteSpace=wrap;html=1;shadow=1;glass=0;sketch=0;strokeWidth=2;fillColor=#FFFF66;" vertex="1" parent="Wss5hNtUMIo5RKEupLla-53">
          <mxGeometry x="7354" y="24" width="1280" height="506" as="geometry" />
        </mxCell>
        <mxCell id="Wss5hNtUMIo5RKEupLla-52" value="&lt;font style=&quot;font-size: 200px&quot;&gt;Dev Ops&lt;/font&gt;" style="rounded=0;whiteSpace=wrap;html=1;shadow=1;glass=0;sketch=0;strokeWidth=2;fillColor=#FFFF66;" vertex="1" parent="Wss5hNtUMIo5RKEupLla-53">
          <mxGeometry x="11304" y="41" width="1280" height="506" as="geometry" />
        </mxCell>
      </root>
    </mxGraphModel>
  </diagram>
</mxfile>
